<?xml version="1.0" encoding="utf-8"?>
<!-- Generator: Adobe Illustrator 25.4.1, SVG Export Plug-In . SVG Version: 6.00 Build 0)  -->
<svg version="1.1"
	 id="Layer_1" xmlns:anim="urn:oasis:names:tc:opendocument:xmlns:animation:1.0" xmlns:ooo="http://xml.openoffice.org/svg/export" xmlns:presentation="http://sun.com/xmlns/staroffice/presentation" xmlns:smil="http://www.w3.org/2001/SMIL20/"
	 xmlns="http://www.w3.org/2000/svg" xmlns:xlink="http://www.w3.org/1999/xlink" x="0px" y="0px" viewBox="0 0 768.8 576.7"
	 style="enable-background:new 0 0 768.8 576.7;" xml:space="preserve">
<style type="text/css">
	.st0{fill:none;}
	.st1{fill-rule:evenodd;clip-rule:evenodd;fill:#97120A;}
	.st2{fill-rule:evenodd;clip-rule:evenodd;fill:#C12925;}
	.st3{fill-rule:evenodd;clip-rule:evenodd;fill:#AF1E1E;}
</style>
<g>
	<rect class="st0" width="768.8" height="576.7"/>
	<path class="st1" d="M260.8,309.8h-8.9v-32.6c0-6,4.9-11,11-11c2.3,0,4.5,0.7,6.3,2l-5.1,7.3c-0.3-0.2-0.7-0.4-1.2-0.4
		c-1.2,0-2.1,0.9-2.1,2.1V309.8L260.8,309.8z"/>
	<path class="st2" d="M259.1,288.9h-7.2v-7.3h14.4v7.3H259.1z"/>
	<path class="st3" d="M256.4,288.9h-4.5v-7.3h8.9v7.3H256.4z"/>
	<path class="st1" d="M283.5,310.5c-8.2,0-14.8-6.6-14.8-14.8c0-8.2,6.6-14.8,14.8-14.8c8.2,0,14.8,6.7,14.8,14.8
		C298.4,303.8,291.7,310.5,283.5,310.5L283.5,310.5z M283.5,289.7c-3.3,0-6,2.7-6,6c0,3.3,2.7,6,6,6c3.3,0,6-2.7,6-6
		C289.5,292.3,286.8,289.7,283.5,289.7L283.5,289.7z"/>
	<path class="st1" d="M317.4,289.7c0.5,0,1,0.1,1.4,0.2l2.2-8.6c-1.2-0.3-2.4-0.5-3.6-0.5c-8,0-14.5,6.5-14.5,14.5h8.9
		C311.8,292.2,314.3,289.7,317.4,289.7L317.4,289.7z"/>
	<path class="st2" d="M307.3,309.8h-4.4v-28.4h8.9v28.4H307.3z"/>
	<path class="st3" d="M311.8,295.3v-13.4c-5.2,2.2-8.9,7.4-8.9,13.4H311.8z"/>
	<path class="st1" d="M337.2,310.5c-8.2,0-14.8-6.6-14.8-14.8c0-8.2,6.7-14.8,14.8-14.8c4.9,0,9.5,2.4,12.2,6.5l-7.3,5
		c-1.1-1.6-2.9-2.6-4.9-2.6c-3.3,0-5.9,2.7-5.9,6c0,3.3,2.7,6,5.9,6c1.9,0,3.7-0.9,4.8-2.4l7.1,5.3
		C346.3,308.2,341.8,310.5,337.2,310.5L337.2,310.5z"/>
	<path class="st1" d="M372.5,295.6L372.5,295.6c0-0.7-0.1-1.4-0.4-2c-0.3-1-0.9-1.8-1.6-2.4c-1.6-1.4-3.9-1.9-6-1.1
		c-2.1,0.8-3.5,2.6-3.8,4.7l0,0c-0.1,1-0.1,2,0.3,2.9c0.3,0.9,0.9,1.8,1.6,2.4c1.6,1.4,3.9,2,6,1.2c1.7-0.6,3.1-2,3.6-3.8l8.5,2.7
		c-1.4,4.5-4.7,7.9-9.1,9.5c-6.8,2.5-14.2-0.3-17.8-6.3c-0.5-0.8-0.9-1.6-1.2-2.6c-0.3-0.9-0.6-1.8-0.7-2.8
		c-1.1-6.9,2.8-13.7,9.6-16.2c6.8-2.5,14.2,0.3,17.8,6.3c0.4,0.6,0.7,1.2,1,1.9c0.1,0.2,0.2,0.4,0.3,0.7c0.1,0.2,0.2,0.5,0.2,0.7
		c0.2,0.7,0.4,1.4,0.5,2l-0.1,0l-8.7,3.2C372.5,296.2,372.5,295.9,372.5,295.6L372.5,295.6z"/>
	<path class="st2" d="M381.1,293.3L381.1,293.3l-8.7,3.2l-9.9,3.6l-8.8,3.2c-0.5-0.8-0.9-1.6-1.2-2.6c-0.3-0.9-0.6-1.8-0.7-2.8
		l8.8-3.2l0,0l9.8-3.6l8.7-3.2c0.4,0.6,0.8,1.2,1,1.9c0.1,0.2,0.2,0.4,0.3,0.7c0.1,0.2,0.2,0.5,0.2,0.7
		C380.9,291.9,381,292.6,381.1,293.3L381.1,293.3z"/>
	<path class="st3" d="M370.5,291.2c0.7,0.6,1.3,1.4,1.6,2.4c0.2,0.6,0.4,1.3,0.4,1.9l0,0c0,0,0,0.1,0,0.1c0,0.3,0,0.6-0.1,0.9
		l8.6-3.1l0.1,0c-0.1-0.9-0.3-1.8-0.6-2.7c-0.3-0.9-0.8-1.8-1.3-2.6L370.5,291.2L370.5,291.2z"/>
	<path class="st3" d="M361,297.7c-0.4-1-0.4-2-0.3-2.9l-8.8,3.2c0.1,0.9,0.4,1.9,0.7,2.8c0.3,0.9,0.7,1.8,1.2,2.6l8.8-3.2
		C361.9,299.4,361.3,298.6,361,297.7L361,297.7z"/>
	<path class="st1" d="M398.7,280.8c-7.6,0-13.8,6.2-13.8,13.8v15.3h8.9v-15.3c0-2.7,2.2-4.9,4.9-4.9c2.7,0,4.9,2.2,4.9,4.9v15.3h8.9
		v-15.3C412.4,287,406.3,280.8,398.7,280.8L398.7,280.8z"/>
	<path class="st2" d="M417.3,280.8c-7.6,0-13.7,6.2-13.7,13.8v15.3h8.9v-15.3c0-2.7,2.2-4.9,4.9-4.9c2.7,0,4.9,2.2,4.9,4.9v15.3h8.9
		v-15.3C431.1,287,424.9,280.8,417.3,280.8L417.3,280.8z"/>
	<path class="st3" d="M412.4,294.2c-0.1-3.9-1.8-7.3-4.5-9.7c-2.6,2.4-4.3,5.9-4.5,9.7c0,0.1,0,0.3,0,0.4v15.3h8.8v-15.3
		C412.4,294.4,412.4,294.3,412.4,294.2L412.4,294.2z"/>
	<path class="st1" d="M455.7,295.6L455.7,295.6c0-0.7-0.1-1.4-0.3-2c-0.4-1-0.9-1.8-1.7-2.4c-1.6-1.4-3.9-1.9-6-1.1
		c-2.1,0.8-3.5,2.6-3.9,4.7l0,0c-0.1,1-0.1,2,0.3,2.9c0.3,0.9,0.9,1.8,1.6,2.4c1.6,1.4,3.9,2,6,1.2c1.8-0.6,3.1-2,3.6-3.8l8.5,2.7
		c-1.4,4.5-4.7,7.9-9.1,9.5c-6.8,2.5-14.2-0.3-17.8-6.3c-0.5-0.8-0.9-1.6-1.2-2.6c-0.3-0.9-0.6-1.8-0.7-2.8
		c-1.1-6.9,2.8-13.7,9.6-16.2c6.7-2.5,14.2,0.3,17.7,6.3c0.4,0.6,0.7,1.2,1,1.9c0.1,0.2,0.2,0.4,0.3,0.7c0.1,0.2,0.1,0.5,0.2,0.7
		c0.2,0.7,0.4,1.4,0.5,2l-0.1,0l-8.7,3.2C455.7,296.2,455.7,295.9,455.7,295.6L455.7,295.6z"/>
	<path class="st2" d="M464.3,293.3L464.3,293.3l-8.7,3.2l-9.9,3.6l-8.8,3.2c-0.5-0.8-0.9-1.6-1.2-2.6c-0.3-0.9-0.6-1.8-0.7-2.8
		l8.8-3.2l0,0l9.8-3.6l8.7-3.2c0.4,0.6,0.7,1.2,1,1.9c0.1,0.2,0.2,0.4,0.3,0.7c0.1,0.2,0.1,0.5,0.2,0.7
		C464.1,291.9,464.3,292.6,464.3,293.3L464.3,293.3z"/>
	<path class="st3" d="M453.7,291.2c0.7,0.6,1.3,1.4,1.6,2.4c0.3,0.6,0.4,1.3,0.4,1.9l0,0c0,0,0,0.1,0,0.1c0,0.3,0,0.6-0.1,0.9
		l8.6-3.1l0.1,0c-0.1-0.9-0.3-1.8-0.6-2.7c-0.3-0.9-0.8-1.8-1.3-2.6L453.7,291.2L453.7,291.2z"/>
	<path class="st3" d="M444.2,297.7c-0.3-1-0.4-2-0.3-2.9l-8.8,3.2c0.1,0.9,0.4,1.9,0.7,2.8c0.3,0.9,0.7,1.8,1.2,2.6l8.7-3.2
		C445.1,299.4,444.5,298.6,444.2,297.7L444.2,297.7z"/>
	<path class="st2" d="M476.1,288.9h-7.7v-7.3h15.4v7.3H476.1z"/>
	<path class="st1" d="M479.3,310.5c-6,0-10.9-4.9-10.9-10.9v-28h8.9v28c0,1.1,0.9,2.1,2.1,2.1c0.6,0,1-0.2,1.2-0.4l5.1,7.2
		C483.8,309.8,481.6,310.5,479.3,310.5L479.3,310.5z"/>
	<path class="st3" d="M472.8,288.9h-4.5v-7.3h8.9v7.3H472.8z"/>
	<path class="st1" d="M502,310.5c-8.2,0-14.8-6.6-14.8-14.8c0-8.2,6.7-14.8,14.8-14.8c8.2,0,14.8,6.7,14.8,14.8
		C516.8,303.8,510.2,310.5,502,310.5L502,310.5z M502,289.7c-3.3,0-6,2.7-6,6c0,3.3,2.7,6,6,6s6-2.7,6-6
		C507.9,292.3,505.3,289.7,502,289.7L502,289.7z"/>
</g>
</svg>
