<?xml version="1.0" encoding="utf-8"?>
<!-- Generator: Adobe Illustrator 25.4.1, SVG Export Plug-In . SVG Version: 6.00 Build 0)  -->
<svg version="1.1"
	 id="Layer_1" xmlnsAnim="urn:oasis:names:tc:opendocument:xmlns:animation:1.0" xmlnsOoo="http://xml.openoffice.org/svg/export" xmlnsPresentation="http://sun.com/xmlns/staroffice/presentation" xmlnsSmil="http://www.w3.org/2001/SMIL20/"
	 xmlns="http://www.w3.org/2000/svg" xmlnsXlink="http://www.w3.org/1999/xlink" x="0px" y="0px" viewBox="0 0 285.7 65.9"
	 style="enable-background:new 0 0 285.7 65.9;" xmlSpace="preserve">
<style type="text/css">
	.st0{fill:none;}
	.st1{fill-rule:evenodd;clip-rule:evenodd;fill:#97120A;}
	.st2{fill-rule:evenodd;clip-rule:evenodd;fill:#C12925;}
	.st3{fill-rule:evenodd;clip-rule:evenodd;fill:#AF1E1E;}
</style>
<g>
	<rect x="-238.9" y="-255.9" class="st0" width="768.8" height="576.7"/>
	<path class="st1" d="M21.9,54H13V21.3c0-6,4.9-11,11-11c2.3,0,4.5,0.7,6.3,2l-5.1,7.3c-0.3-0.2-0.7-0.4-1.2-0.4
		c-1.2,0-2.1,0.9-2.1,2.1V54L21.9,54z"/>
	<path class="st2" d="M20.2,33H13v-7.3h14.4V33H20.2z"/>
	<path class="st3" d="M17.5,33H13v-7.3h8.9V33H17.5z"/>
	<path class="st1" d="M44.6,54.6c-8.2,0-14.8-6.6-14.8-14.8c0-8.2,6.6-14.8,14.8-14.8c8.2,0,14.8,6.7,14.8,14.8
		C59.5,48,52.8,54.6,44.6,54.6L44.6,54.6z M44.6,33.8c-3.3,0-6,2.7-6,6s2.7,6,6,6s6-2.7,6-6S47.9,33.8,44.6,33.8L44.6,33.8z"/>
	<path class="st1" d="M78.5,33.8c0.5,0,1,0.1,1.4,0.2l2.2-8.6c-1.2-0.3-2.4-0.5-3.6-0.5c-8,0-14.5,6.5-14.5,14.5h8.9
		C72.8,36.4,75.4,33.8,78.5,33.8L78.5,33.8z"/>
	<path class="st2" d="M68.4,54H64V25.6h8.9V54H68.4z"/>
	<path class="st3" d="M72.8,39.5V26.1c-5.2,2.2-8.9,7.4-8.9,13.4H72.8z"/>
	<path class="st1" d="M98.2,54.6c-8.2,0-14.8-6.6-14.8-14.8c0-8.2,6.7-14.8,14.8-14.8c4.9,0,9.5,2.4,12.2,6.5l-7.3,5
		c-1.1-1.6-2.9-2.6-4.9-2.6c-3.3,0-5.9,2.7-5.9,6s2.7,6,5.9,6c1.9,0,3.7-0.9,4.8-2.4l7.1,5.3C107.4,52.4,102.9,54.6,98.2,54.6
		L98.2,54.6z"/>
	<path class="st1" d="M133.6,39.8L133.6,39.8c0-0.7-0.1-1.4-0.4-2c-0.3-1-0.9-1.8-1.6-2.4c-1.6-1.4-3.9-1.9-6-1.1
		c-2.1,0.8-3.5,2.6-3.8,4.7l0,0c-0.1,1-0.1,2,0.3,2.9c0.3,0.9,0.9,1.8,1.6,2.4c1.6,1.4,3.9,2,6,1.2c1.7-0.6,3.1-2,3.6-3.8l8.5,2.7
		c-1.4,4.5-4.7,7.9-9.1,9.5c-6.8,2.5-14.2-0.3-17.8-6.3c-0.5-0.8-0.9-1.6-1.2-2.6c-0.3-0.9-0.6-1.8-0.7-2.8
		c-1.1-6.9,2.8-13.7,9.6-16.2s14.2,0.3,17.8,6.3c0.4,0.6,0.7,1.2,1,1.9c0.1,0.2,0.2,0.4,0.3,0.7c0.1,0.2,0.2,0.5,0.2,0.7
		c0.2,0.7,0.4,1.4,0.5,2l-0.1,0l-8.7,3.2C133.6,40.3,133.6,40.1,133.6,39.8L133.6,39.8z"/>
	<path class="st2" d="M142.2,37.4L142.2,37.4l-8.7,3.2l-9.9,3.6l-8.8,3.2c-0.5-0.8-0.9-1.6-1.2-2.6c-0.3-0.9-0.6-1.8-0.7-2.8
		l8.8-3.2l0,0l9.8-3.6l8.7-3.2c0.4,0.6,0.8,1.2,1,1.9c0.1,0.2,0.2,0.4,0.3,0.7c0.1,0.2,0.2,0.5,0.2,0.7
		C142,36.1,142.1,36.7,142.2,37.4L142.2,37.4z"/>
	<path class="st3" d="M131.6,35.3c0.7,0.6,1.3,1.4,1.6,2.4c0.2,0.6,0.4,1.3,0.4,1.9l0,0c0,0,0,0.1,0,0.1c0,0.3,0,0.6-0.1,0.9
		l8.6-3.1l0.1,0c-0.1-0.9-0.3-1.8-0.6-2.7c-0.3-0.9-0.8-1.8-1.3-2.6L131.6,35.3L131.6,35.3z"/>
	<path class="st3" d="M122.1,41.8c-0.4-1-0.4-2-0.3-2.9l-8.8,3.2c0.1,0.9,0.4,1.9,0.7,2.8c0.3,0.9,0.7,1.8,1.2,2.6l8.8-3.2
		C123,43.6,122.4,42.7,122.1,41.8L122.1,41.8z"/>
	<path class="st1" d="M159.8,24.9c-7.6,0-13.8,6.2-13.8,13.8V54h8.9V38.7c0-2.7,2.2-4.9,4.9-4.9s4.9,2.2,4.9,4.9V54h8.9V38.7
		C173.5,31.1,167.3,24.9,159.8,24.9L159.8,24.9z"/>
	<path class="st2" d="M178.4,24.9c-7.6,0-13.7,6.2-13.7,13.8V54h8.9V38.7c0-2.7,2.2-4.9,4.9-4.9s4.9,2.2,4.9,4.9V54h8.9V38.7
		C192.2,31.1,186,24.9,178.4,24.9L178.4,24.9z"/>
	<path class="st3" d="M173.5,38.3c-0.1-3.9-1.8-7.3-4.5-9.7c-2.6,2.4-4.3,5.9-4.5,9.7c0,0.1,0,0.3,0,0.4V54h8.8V38.7
		C173.5,38.6,173.5,38.5,173.5,38.3L173.5,38.3z"/>
	<path class="st1" d="M216.8,39.8L216.8,39.8c0-0.7-0.1-1.4-0.3-2c-0.4-1-0.9-1.8-1.7-2.4c-1.6-1.4-3.9-1.9-6-1.1
		c-2.1,0.8-3.5,2.6-3.9,4.7l0,0c-0.1,1-0.1,2,0.3,2.9c0.3,0.9,0.9,1.8,1.6,2.4c1.6,1.4,3.9,2,6,1.2c1.8-0.6,3.1-2,3.6-3.8l8.5,2.7
		c-1.4,4.5-4.7,7.9-9.1,9.5c-6.8,2.5-14.2-0.3-17.8-6.3c-0.5-0.8-0.9-1.6-1.2-2.6c-0.3-0.9-0.6-1.8-0.7-2.8
		c-1.1-6.9,2.8-13.7,9.6-16.2c6.7-2.5,14.2,0.3,17.7,6.3c0.4,0.6,0.7,1.2,1,1.9c0.1,0.2,0.2,0.4,0.3,0.7s0.1,0.5,0.2,0.7
		c0.2,0.7,0.4,1.4,0.5,2l-0.1,0l-8.7,3.2C216.8,40.3,216.8,40.1,216.8,39.8L216.8,39.8z"/>
	<path class="st2" d="M225.4,37.4L225.4,37.4l-8.7,3.2l-9.9,3.6l-8.8,3.2c-0.5-0.8-0.9-1.6-1.2-2.6c-0.3-0.9-0.6-1.8-0.7-2.8
		l8.8-3.2l0,0l9.8-3.6l8.7-3.2c0.4,0.6,0.7,1.2,1,1.9c0.1,0.2,0.2,0.4,0.3,0.7s0.1,0.5,0.2,0.7C225.2,36.1,225.4,36.7,225.4,37.4
		L225.4,37.4z"/>
	<path class="st3" d="M214.8,35.3c0.7,0.6,1.3,1.4,1.6,2.4c0.3,0.6,0.4,1.3,0.4,1.9l0,0c0,0,0,0.1,0,0.1c0,0.3,0,0.6-0.1,0.9
		l8.6-3.1l0.1,0c-0.1-0.9-0.3-1.8-0.6-2.7c-0.3-0.9-0.8-1.8-1.3-2.6L214.8,35.3L214.8,35.3z"/>
	<path class="st3" d="M205.3,41.8c-0.3-1-0.4-2-0.3-2.9l-8.8,3.2c0.1,0.9,0.4,1.9,0.7,2.8c0.3,0.9,0.7,1.8,1.2,2.6l8.7-3.2
		C206.2,43.6,205.6,42.7,205.3,41.8L205.3,41.8z"/>
	<path class="st2" d="M237.2,33.1h-7.7v-7.3h15.4v7.3H237.2z"/>
	<path class="st1" d="M240.4,54.6c-6,0-10.9-4.9-10.9-10.9v-28h8.9v28c0,1.1,0.9,2.1,2.1,2.1c0.6,0,1-0.2,1.2-0.4l5.1,7.2
		C244.8,53.9,242.7,54.6,240.4,54.6L240.4,54.6z"/>
	<path class="st3" d="M233.9,33.1h-4.5v-7.3h8.9v7.3H233.9z"/>
	<path class="st1" d="M263.1,54.6c-8.2,0-14.8-6.6-14.8-14.8c0-8.2,6.7-14.8,14.8-14.8c8.2,0,14.8,6.7,14.8,14.8
		C277.9,48,271.3,54.6,263.1,54.6L263.1,54.6z M263.1,33.8c-3.3,0-6,2.7-6,6s2.7,6,6,6c3.3,0,6-2.7,6-6S266.4,33.8,263.1,33.8
		L263.1,33.8z"/>
</g>
</svg>
