<?xml version="1.0" encoding="utf-8"?>
<!-- Generator: Adobe Illustrator 25.4.1, SVG Export Plug-In . SVG Version: 6.00 Build 0)  -->
<svg version="1.1" id="Layer_1" xmlns="http://www.w3.org/2000/svg" xmlns:xlink="http://www.w3.org/1999/xlink" x="0px" y="0px"
	 viewBox="0 0 846.7 497.8" style="enable-background:new 0 0 846.7 497.8;" xml:space="preserve">
<style type="text/css">
	.st0{fill:#FFFFFF;}
	.st1{fill:#3F3D56;}
	.st2{fill:#E6E6E6;}
	.st3{fill:#0086D5;}
	.st4{fill:#FE3D39;}
	.st5{fill:#00D35F;}
	.st6{fill:#CCCCCC;}
	.st7{fill:#F2F2F2;}
	.st8{fill:#2F2E41;}
	.st9{fill:#A0616A;}
	.st10{fill:#232323;}
</style>
<path class="st0" d="M137.1,56.7c-14.2,0-25.6,11.5-25.6,25.6v278.7c0,14.2,11.5,25.6,25.6,25.6h577.7c14.2,0,25.6-11.5,25.6-25.6
	V82.3c0-14.2-11.5-25.6-25.6-25.6H137.1z"/>
<path class="st1" d="M714.8,387.7H137.1c-14.7,0-26.6-11.9-26.6-26.6V82.3c0-14.7,11.9-26.6,26.6-26.6h577.7
	c14.7,0,26.6,11.9,26.6,26.6v278.7C741.4,375.8,729.5,387.7,714.8,387.7z M137.1,57.7c-13.6,0-24.6,11-24.6,24.6v278.7
	c0,13.6,11,24.6,24.6,24.6h577.7c13.6,0,24.6-11,24.6-24.6V82.3c0-13.6-11-24.6-24.6-24.6L137.1,57.7z"/>
<ellipse transform="matrix(3.964487e-02 -0.9992 0.9992 3.964487e-02 -87.2014 652.8521)" class="st2" cx="296" cy="371.8" rx="2" ry="7.7"/>
<ellipse transform="matrix(3.964016e-02 -0.9992 0.9992 3.964016e-02 -37.2426 699.6102)" class="st3" cx="345.3" cy="369.2" rx="2" ry="7.7"/>
<ellipse transform="matrix(3.964487e-02 -0.9992 0.9992 3.964487e-02 -90.1925 619.3142)" class="st4" cx="277.1" cy="356.6" rx="2" ry="7.7"/>
<ellipse transform="matrix(0.1132 -0.9936 0.9936 0.1132 -120.2545 567.1368)" class="st2" cx="257.6" cy="350.9" rx="1.8" ry="3.4"/>
<ellipse transform="matrix(0.1132 -0.9936 0.9936 0.1132 -118.7663 545.4985)" class="st5" cx="246.2" cy="339.3" rx="1.8" ry="3.4"/>
<ellipse transform="matrix(0.1132 -0.9936 0.9936 0.1132 -81.4601 626.981)" class="st2" cx="310.5" cy="359.1" rx="1.8" ry="3.4"/>
<ellipse transform="matrix(0.1132 -0.9936 0.9936 0.1132 -106.3962 608.9589)" class="st4" cx="288" cy="364.1" rx="1.8" ry="3.4"/>
<ellipse transform="matrix(0.1132 -0.9936 0.9936 0.1132 -81.9677 652.3044)" class="st3" cx="324.4" cy="372.1" rx="1.8" ry="3.4"/>
<path class="st6" d="M0,331.1c0,0.7,0.5,1.2,1.2,1.2c0,0,0,0,0,0h844.3c0.7,0,1.2-0.5,1.2-1.2s-0.5-1.2-1.2-1.2H1.2
	C0.5,329.9,0,330.5,0,331.1C0,331.1,0,331.1,0,331.1z"/>
<path class="st7" d="M288.6,310.1c-1.5,0.1-2.9-1.1-2.9-2.7c0-0.8,0.3-1.6,0.9-2.2l0.2-0.8c0-0.1-0.1-0.1-0.1-0.2
	c-1.6-3.8-6-5.6-9.9-4c-1.8,0.8-3.3,2.2-4,4.1c-2.3,5.5-5.2,11-5.9,16.8c-0.3,2.6-0.2,5.2,0.4,7.7c-5.3-11.7-8.1-24.3-8.1-37.1
	c0-3.2,0.2-6.4,0.5-9.6c0.3-2.6,0.7-5.2,1.2-7.8c2.9-14,9-27.2,17.9-38.3c4.3-2.4,7.8-6,10-10.4c0.8-1.6,1.4-3.3,1.7-5
	c-0.5,0.1-1.8-7.4-1.5-7.8c-0.7-1-1.9-1.5-2.6-2.5c-3.7-5-8.8-4.1-11.4,2.7c-5.7,2.9-5.7,7.6-2.2,12.2c2.2,2.9,2.5,6.8,4.5,9.9
	c-0.2,0.3-0.4,0.5-0.6,0.8c-3.7,4.7-6.8,9.7-9.5,15.1c0.6-6-0.1-12-2.3-17.6c-2.2-5.2-6.2-9.6-9.8-14.1c-4.3-5.4-13.1-3.1-13.8,3.8
	c0,0.1,0,0.1,0,0.2c0.5,0.3,1,0.6,1.6,1c1.7,1.2,2.2,3.5,1.1,5.3c-0.6,0.9-1.5,1.5-2.6,1.6l-0.1,0c0.2,1.9,0.5,3.8,1,5.7
	c-4.6,17.7,5.3,24.2,19.4,24.5c0.3,0.2,0.6,0.3,0.9,0.5c-2.7,7.6-4.4,15.5-5,23.5c-0.4,4.7-0.3,9.5,0.1,14.2l0-0.2
	c-1-5.3-3.8-10-8-13.4c-6.1-5-14.8-6.9-21.4-10.9c-2-1.3-4.7-0.7-6,1.3c-0.6,0.9-0.8,1.9-0.7,2.9c0,0.1,0,0.1,0,0.2
	c1,0.4,1.9,0.9,2.9,1.4c0.5,0.3,1,0.6,1.6,1c1.7,1.2,2.2,3.5,1.1,5.3c-0.6,0.9-1.5,1.5-2.6,1.6l-0.1,0c-0.1,0-0.1,0-0.2,0
	c1.7,4,4,7.7,7,10.9c2.9,15.5,15.2,16.9,28.3,12.4h0c1.4,6.3,3.5,12.4,6.2,18.2H288c0.1-0.2,0.2-0.5,0.2-0.8c-2.1,0.1-4.1,0-6.2-0.4
	c1.7-2,3.3-4.1,5-6.1c0,0,0.1-0.1,0.1-0.1c0.8-1,1.7-2.1,2.5-3.1l0,0C289.7,316.4,289.4,313.2,288.6,310.1L288.6,310.1z"/>
<path class="st7" d="M177.3,297.7c-2.5,0.1-4.6-1.8-4.8-4.3c-0.1-1.3,0.5-2.6,1.5-3.6c0.1-0.5,0.2-0.8,0.3-1.2
	c0-0.1-0.1-0.2-0.1-0.3c-2.6-6.2-9.8-9.1-16-6.5c-3,1.3-5.3,3.6-6.5,6.6c-3.7,8.9-8.4,17.8-9.5,27.2c-0.5,4.2-0.3,8.4,0.6,12.4
	c-8.7-18.9-13.2-39.4-13.2-60.2c0-5.2,0.3-10.4,0.9-15.6c0.5-4.2,1.1-8.5,2-12.7c4.6-22.7,14.6-44,29.1-62.2
	c7-3.8,12.7-9.7,16.2-16.8c1.3-2.6,2.2-5.3,2.7-8.1c-0.8,0.1-3-11.9-2.4-12.7c-1.1-1.7-3.1-2.5-4.3-4.1c-6-8.1-14.2-6.7-18.5,4.3
	c-9.2,4.6-9.3,12.3-3.6,19.7c3.6,4.7,4.1,11.1,7.2,16.1c-0.3,0.4-0.7,0.8-1,1.2c-5.9,7.6-11.1,15.8-15.4,24.4
	c1.1-9.7-0.2-19.4-3.7-28.5c-3.5-8.5-10.1-15.6-15.9-22.9c-7-8.8-21.2-5-22.4,6.2c0,0.1,0,0.2,0,0.3c0.9,0.5,1.7,1,2.5,1.5
	c2.8,1.9,3.6,5.7,1.7,8.6c-1,1.4-2.5,2.4-4.2,2.7l-0.1,0c0.3,3.1,0.8,6.2,1.6,9.2c-7.4,28.7,8.6,39.2,31.5,39.6
	c0.5,0.3,1,0.5,1.5,0.8c-4.3,12.3-7.1,25.1-8.1,38.2c-0.6,7.7-0.6,15.4,0.1,23.1l0-0.3c-1.7-8.5-6.2-16.2-12.9-21.8
	c-9.9-8.1-23.9-11.1-34.6-17.7c-5.2-3.2-11.8,0.9-10.9,6.9c0,0.1,0,0.2,0,0.3c1.6,0.6,3.1,1.4,4.7,2.2c0.9,0.5,1.7,1,2.5,1.5
	c2.8,1.9,3.6,5.7,1.7,8.6c-1,1.4-2.5,2.4-4.2,2.7l-0.1,0c-0.1,0-0.2,0-0.3,0c2.7,6.5,6.6,12.5,11.3,17.7
	c4.6,25.1,24.6,27.4,45.9,20.1h0c2.3,10.2,5.7,20.1,10.1,29.5h36.1c0.1-0.4,0.2-0.8,0.4-1.2c-3.3,0.2-6.7,0-10-0.6
	c2.7-3.3,5.4-6.6,8-9.9c0.1-0.1,0.1-0.1,0.2-0.2c1.4-1.7,2.7-3.4,4.1-5l0,0C179.1,307.9,178.5,302.7,177.3,297.7L177.3,297.7z"/>
<path class="st8" d="M672,18c-2.4-18.6-45.3-17.4-49.4,0.1c-2.1-1.3-7.6-0.4-9.7,1.1s-3.3,3.8-4.6,6c-1.7,3.1-3.6,6.2-3.9,9.7
	c-0.4,3.5,1,7.5,4.2,9c2.5,1.2,8.1,0.4,10.8-0.2c1.9-0.4,3.6-0.7,4.9-1.1c0.5-2.2,0.1-4.4-0.9-6.4c2.3,0.4,4.2,1.9,5.3,3.9
	c0.2,0.4,8.1,59.6,8.1,59.6c2.1,0.3,4.3,0.3,6.5,0.2c1.3-7.3,1.6-14.7,0.7-22.1c2.3,4.2,4.1,8.6,5.4,13.2c0.7,2.6,1.3,5.2,1.8,7.8
	c18.7-3.5,44-15.5,48.6-36c0-0.1-0.1-0.1-0.1-0.2c-0.6-1.5,0.1-3.2,1.6-3.8c1.1-0.4,2.4-0.2,3.2,0.7c0.6,0.6,1.1,1.1,1.5,1.5
	C704.3,48.2,694.4,36.4,672,18z"/>
<polygon class="st9" points="398.9,473.6 388.4,468.1 405,424.1 420.5,432.2 "/>
<path class="st8" d="M356.5,473c-1.4,2.6-0.4,5.8,2.2,7.1l20.9,10.9l7.5-5.6l-2.5,8.2l7.9,4.1l11.6-27.7l-2.7-1.6l-10.8-6.5
	l-3.5-2.1l-3.9,7.5l-22.7,2.8C358.9,470.5,357.3,471.5,356.5,473z"/>
<polygon class="st9" points="388.1,311.7 380.5,302.7 412.5,268.3 423.8,281.6 "/>
<path class="st8" d="M349.2,295.2c-2.2,1.9-2.5,5.2-0.6,7.5l15.2,18l9-2.3l-5.4,6.6l5.7,6.8l21.3-21.2l-1.9-2.5l-7.5-10.1l-2.4-3.3
	l-6.5,5.5l-22-6C352.3,293.7,350.5,294.1,349.2,295.2z"/>
<path class="st8" d="M724.5,277.8c0,0,32.4,69.3-101.7,50.6c0,0-71.5-79.2-69.4-88.7c0,0-30.4-30.9-28.9-31.5s2.4-1.8-0.1-1.7
	s-2.5-3.5-2.5-3.5s-55,59.6-101.2,89.2l-16-18c0,0,6.2-19.5,9.2-19.5s4,0.7,4.5-3.1s-1.9-7.2,1.3-7.5s69.4-77.7,69.4-77.7
	s7.1-25.5,29-20.6s135.2,97.1,135.2,97.1L724.5,277.8z"/>
<path class="st8" d="M669.9,330.7l-177.2-1.5l-77,122L394,439.7l4.8-2c0,0-1.5-17,0.3-21.2s7.1-3,7.1-3l44.9-103.5
	c6.4-18.9,24.8-31,44.7-29.4c37.1-5.4,97.4-1.1,160.1,4.2L669.9,330.7z"/>
<path class="st9" d="M567.3,123.1c7,1.1,11.9,7.5,11,14.6c-0.1,0.7-0.3,1.4-0.5,2l36.4,27.6l-7.5,23.4L561,147.5
	c-5.5-2.2-8.8-7.9-8.1-13.8c0.9-6.8,7.2-11.6,14.1-10.7l0,0C567.1,123,567.2,123.1,567.3,123.1z"/>
<path class="st10" d="M727.9,124.8L714.9,161l-51.2,72.3c0,0-0.4-0.2-1.2-0.5c-4.4-1.9-20.4-8.9-35.4-16.8
	c-14.1-7.5-27.4-15.7-29.5-21.4c-0.2-0.6-0.4-1.2-0.6-1.7v0c-1-2.9-1.6-5.9-1.8-9c-0.2-2.4,0-3.6-0.3-3.8c-0.2-0.1-0.8,0.4-1.9,1.6
	c-0.1,0.1-0.2,0.2-0.2,0.2c-4.2,4.2-9.3,3.6-8,1.6c1.3-2,0.6-2-1.3-4.1c-1.4-1.6-6-7.8-8.2-10.8c-0.8-1-1.3-1.7-1.3-1.7l0.8-1.2
	l2.1-3.3l10.1-15.9l0.6-0.9c0,0,20.8,4.8,23.6,9.4c2.8,4.6-4.2,4.4,2.8,4.6c7,0.1,14.1-9.3,9,0.1c-5.1,9.4-3.8,12.7,2.5,11.2
	c2.6-0.6,6.6,1.3,10.5,3.8v0c2.4,1.6,4.8,3.3,7,5.1c2.4,1.9,4,3.4,4,3.4l39.5-80.2l4.4-8.9c2.7-5.5,7.5-9.6,13.3-11.5l1.4,2.4
	C714.2,97.7,721.6,111,727.9,124.8z"/>
<path class="st10" d="M730.1,239.8c12.1,2.8-0.8,91-15.2,91.3c-105,2-73-56.9-78.7-62.5c-5.6-5.6-10.7-1.6-5.6-10.4
	c3.7-6.4,9.2-5.4,9.3-9c0-1.3-0.7-3.3-2.5-6.5c-6.8-11.8-6.8-15.4-6.8-15.4c-1.7-3.6-2.9-7.3-3.5-11.2c-1.1-5.8-1.2-11.7-0.4-17.5
	c1.3-8.5,4.5-16.6,9.3-23.8v0c0.5-0.8,1-1.5,1.6-2.3c1.3-1.7,8.3-1.4,8.3-1.4l15-63L652.2,83l41.1-19.3l10.9,19l1.4,2.4
	c8.5,12.6,16,25.8,22.3,39.6c6.1,13.5,11.1,28.5,11.2,41.6c0.5,34-5.4,44.1-5.4,44.1s14.2,10.6,7.1,17.2
	C733.8,234.2,718,237,730.1,239.8z"/>
<path class="st1" d="M543.9,114.8l-6.7,5.1c-2.8,2.1-3.3,6.1-1.2,8.8l16.2,21.2l9.5,12.5c2.1,2.8,6,3.3,8.8,1.2l6.7-5.1
	c2.7-2.1,3.3-6,1.2-8.8l-1-1.3l-19.6-25.7l-5.1-6.7C550.6,113.2,546.7,112.7,543.9,114.8C543.9,114.8,543.9,114.8,543.9,114.8z"/>
<path class="st10" d="M547.4,114.4l-7.2,5c-2.5,1.6-3.2,5-1.6,7.5c0.1,0.2,0.2,0.4,0.4,0.5l9.5,11.4l5,6.1l3.4,4.1l7.5,9.1
	c2.2,2.5,5.9,3,8.7,1.1l5.4-3.8l1.8-1.3c1.8-1.2,2.8-3.4,2.3-5.6c-0.2-0.9-0.6-1.7-1.2-2.4l-22.2-26.8l-3.2-3.8
	C553.9,113,550.2,112.5,547.4,114.4z"/>
<path class="st9" d="M552,142.5c7,1.1,11.9,7.5,11,14.6c-0.1,0.7-0.3,1.4-0.5,2l36.4,27.6l-7.5,23.4l-45.8-43.2
	c-5.5-2.2-8.8-7.9-8.1-13.8c0.9-6.8,7.2-11.6,14.1-10.7h0C551.8,142.5,551.9,142.5,552,142.5z"/>
<path class="st10" d="M700.5,101.6L700.5,101.6c12.2,2.5,20.1,14.4,17.7,26.7c-0.2,1.1-0.5,2.1-0.9,3.2l-17.7,49.1l-51.2,72.3
	c0,0-61.4-25.9-66-38.8s-0.5-17.2-4.6-12.8s-9.5,3.9-8.2,1.9s0.6-2-1.3-4.1s-9.4-12.5-9.4-12.5l13.6-21.3c0,0,20.8,4.8,23.6,9.4
	s-4.2,4.4,2.8,4.6s14.1-9.3,9,0.1s-3.7,12.7,2.6,11.2s21.6,12.4,21.6,12.4l43.9-89.1C680.3,104.5,690.4,99.5,700.5,101.6z"/>
<circle class="st9" cx="651.3" cy="49" r="32.6"/>
<path class="st8" d="M689.4,13.5C686.9-5.1,644-3.9,640,13.6c-2.1-1.3-7.6-0.4-9.7,1.1s-3.3,3.8-4.6,6c-1.7,3.1-14,13.4-15.8,10.4
	c-4.1-6.8-12.2,8.1-6,18c1.5,2.4,30.2-1.4,33-2c1.9-0.4-1.4,0.3,0,0c0.4-2.2,4.9-13.3,3.9-15.2c2.3,0.4,4.2,1.9,5.3,3.9
	c0.2,0.4,8.1,59.6,8.1,59.6c2.1,0.3,4.3,0.3,6.5,0.2c1.3-7.3,1.6-14.7,0.7-22.1c2.3,4.2,4.1,8.6,5.4,13.2c0.7,2.6,1.3,5.2,1.8,7.8
	c18.7-3.5,44-15.5,48.6-36C691.9,50.1,711.8,31.9,689.4,13.5z"/>
<ellipse transform="matrix(0.144 -0.9896 0.9896 0.144 234.7362 483.1134)" class="st2" cx="396.6" cy="105.9" rx="5.3" ry="7.6"/>
<ellipse transform="matrix(0.144 -0.9896 0.9896 0.144 281.5761 527.6654)" class="st3" cx="445.8" cy="101.1" rx="5.3" ry="7.6"/>
<ellipse transform="matrix(0.144 -0.9896 0.9896 0.144 262.6036 435.7126)" class="st4" cx="383.1" cy="66.1" rx="5.3" ry="7.6"/>
<ellipse transform="matrix(7.561574e-03 -1 1 7.561574e-03 312.3482 416.369)" class="st2" cx="365.9" cy="50.8" rx="4.8" ry="3.3"/>
<ellipse transform="matrix(7.561574e-03 -1 1 7.561574e-03 335.5281 378.9814)" class="st5" cx="358.7" cy="20.5" rx="4.8" ry="3.3"/>
<ellipse transform="matrix(7.561574e-03 -1 1 7.561574e-03 337.9968 488.3727)" class="st2" cx="415" cy="73.9" rx="4.8" ry="3.3"/>
<ellipse transform="matrix(7.561574e-03 -1 1 7.561574e-03 302.5509 476.386)" class="st4" cx="391.3" cy="85.8" rx="4.8" ry="3.3"/>
<ellipse transform="matrix(7.561574e-03 -1 1 7.561574e-03 313.4509 531.2242)" class="st3" cx="424.4" cy="107.7" rx="4.8" ry="3.3"/>
<ellipse transform="matrix(0.8135 -0.5815 0.5815 0.8135 22.8807 338.8198)" class="st1" cx="539.7" cy="133.7" rx="1" ry="2.5"/>
<ellipse transform="matrix(0.8135 -0.5815 0.5815 0.8135 24.6474 336.3292)" class="st1" cx="536.7" cy="129.7" rx="1" ry="2.5"/>
</svg>
